HIERARCHY
ROOT Hips
{
 OFFSET 0.000000 0.000000 0.000000
 CHANNELS 6 Xposition Yposition Zposition Yrotation Xrotation Zrotation
 JOINT Chest
 {
  OFFSET 0.000000 9.585900 0.002600
  CHANNELS 3 Yrotation Xrotation Zrotation
  JOINT Chest2
  {
   OFFSET 0.000000 9.601200 -0.005300
   CHANNELS 3 Yrotation Xrotation Zrotation
   JOINT Chest3
   {
    OFFSET 0.000000 9.561800 0.000000
    CHANNELS 3 Yrotation Xrotation Zrotation
    JOINT Chest4
    {
     OFFSET 0.000000 9.552100 0.000000
     CHANNELS 3 Yrotation Xrotation Zrotation
     JOINT Neck
     {
      OFFSET 0.000000 14.453000 0.000000
      CHANNELS 3 Yrotation Xrotation Zrotation
      JOINT Head
      {
       OFFSET 0.000000 8.936500 -0.011300
       CHANNELS 3 Yrotation Xrotation Zrotation
       End Site
       {
        OFFSET 0.000000 17.073600 -0.006000
       }
      }
     }
     JOINT RightCollar
     {
      OFFSET -2.921100 9.558500 0.000000
      CHANNELS 3 Yrotation Xrotation Zrotation
      JOINT RightShoulder
      {
       OFFSET -13.519700 0.000000 0.000000
       CHANNELS 3 Yrotation Xrotation Zrotation
       JOINT RightElbow
       {
        OFFSET 0.000000 -29.696600 0.000000
        CHANNELS 3 Yrotation Xrotation Zrotation
        JOINT RightWrist
        {
         OFFSET 0.000000 -24.004700 0.000000
         CHANNELS 3 Yrotation Xrotation Zrotation
         End Site
         {
          OFFSET 0.000000 -17.728500 0.000000
         }
        }
       }
      }
     }
     JOINT LeftCollar
     {
      OFFSET 2.921100 9.558500 0.000000
      CHANNELS 3 Yrotation Xrotation Zrotation
      JOINT LeftShoulder
      {
       OFFSET 13.519700 0.000000 0.000000
       CHANNELS 3 Yrotation Xrotation Zrotation
       JOINT LeftElbow
       {
        OFFSET 0.000000 -29.696600 0.000000
        CHANNELS 3 Yrotation Xrotation Zrotation
        JOINT LeftWrist
        {
         OFFSET 0.000000 -24.004700 0.000000
         CHANNELS 3 Yrotation Xrotation Zrotation
         End Site
         {
          OFFSET 0.000000 -17.728500 0.000000
         }
        }
       }
      }
     }
    }
   }
  }
 }
 JOINT RightHip
 {
  OFFSET -7.771700 -0.012900 -0.001300
  CHANNELS 3 Yrotation Xrotation Zrotation
  JOINT RightKnee
  {
   OFFSET 0.000000 -40.869800 0.001200
   CHANNELS 3 Yrotation Xrotation Zrotation
   JOINT RightAnkle
   {
    OFFSET 0.000000 -39.717900 0.002100
    CHANNELS 3 Yrotation Xrotation Zrotation
    JOINT RightToe
    {
     OFFSET 0.000000 -4.965400 11.033500
     CHANNELS 3 Yrotation Xrotation Zrotation
     End Site
     {
      OFFSET 0.000000 -1.423100 5.872300
     }
    }
   }
  }
 }
 JOINT LeftHip
 {
  OFFSET 7.771700 -0.012900 -0.001300
  CHANNELS 3 Yrotation Xrotation Zrotation
  JOINT LeftKnee
  {
   OFFSET 0.000000 -40.869800 0.001200
   CHANNELS 3 Yrotation Xrotation Zrotation
   JOINT LeftAnkle
   {
    OFFSET 0.000000 -39.717900 0.002100
    CHANNELS 3 Yrotation Xrotation Zrotation
    JOINT LeftToe
    {
     OFFSET 0.000000 -4.965400 11.033500
     CHANNELS 3 Yrotation Xrotation Zrotation
     End Site
     {
      OFFSET 0.000000 -1.423100 5.872300
     }
    }
   }
  }
 }
}
MOTION
Frames: 16
Frame Time: 0.008333
0.000000 85.388000 0.000000 0.000000 -5.767877 0.000000 0.000000 11.653817 0.000000 0.000000 -5.885947 0.000000 0.000000 -0.000000 0.000000 0.000000 -0.000000 0.000000 0.000000 12.528835 0.000000 0.000000 0.711642 0.000000 0.000000 -0.000000 0.000000 0.000000 0.000000 -90.000000 0.000000 -2.309062 0.000000 0.000000 2.309062 0.000000 0.000000 -0.000000 0.000000 0.000000 -0.000000 90.000000 0.000000 -2.309062 0.000000 0.000000 2.309062 0.000000 0.000000 8.520406 0.000000 0.000000 1.905762 0.000000 -0.000000 -4.658285 0.000000 0.000000 -0.000000 0.000000 0.000000 8.520406 0.000000 0.000000 1.905762 0.000000 -0.000000 -4.658285 0.000000 0.000000 -0.000000 0.000000
-0.561879 52.198730 35.523349 169.969977 -38.532338 -1.677818 4.657614 25.654281 3.141593 0.665610 4.194127 0.553579 1.046346 6.692669 0.905363 3.784500 20.907953 3.369298 2.366013 17.219260 0.155986 4.348254 -3.849706 -0.553669 -9.116193 0.300410 -4.657285 0.854126 -7.557066 2.449414 153.313524 -71.839019 -140.232430 4.178620 -9.133700 -5.695609 -8.481755 0.507848 0.655266 -1.764394 -25.657237 2.430685 174.514250 -39.277282 167.894966 -11.805550 -28.656935 33.291942 -5.484452 -42.402389 4.473642 -171.144602 87.069981 -166.658968 -0.195541 -11.470267 -3.797426 0.047050 -0.224381 0.011379 1.528818 -39.142970 6.184979 73.411059 83.387274 63.230543 -5.917030 -13.137520 10.057888 0.357996 1.527095 0.142268
-0.556634 52.197273 35.516877 169.961410 -38.538492 -1.669514 4.697055 25.647862 3.156021 0.671766 4.178185 0.548752 1.052659 6.680231 0.903897 3.793405 20.899477 3.372083 2.351350 17.208457 0.162647 4.303053 -3.841574 -0.517344 -9.124446 0.323118 -4.617753 0.860382 -7.558960 2.480517 153.468430 -71.835746 -140.366040 4.160443 -9.153831 -5.714350 -8.505390 0.555974 0.659481 -1.763441 -25.605699 2.349986 174.443223 -39.383047 167.870226 -11.728137 -28.480038 32.994099 -5.475215 -42.398164 4.467460 -171.244640 87.059722 -166.750270 -0.190127 -11.477526 -3.806430 0.043855 -0.226946 0.012492 1.531299 -39.135613 6.179591 73.541065 83.379100 63.368386 -5.930975 -13.149423 10.051899 0.359202 1.533030 0.143408
-0.547905 52.196921 35.508541 169.945357 -38.561356 -1.671050 4.744057 25.649874 3.179288 0.664781 4.178483 0.549203 1.049379 6.680971 0.904790 3.816064 20.870457 3.363982 2.343433 17.200497 0.169730 4.271496 -3.825810 -0.482058 -9.122435 0.343979 -4.578448 0.850228 -7.545832 2.485292 153.681137 -71.818310 -140.543942 4.183118 -9.121795 -5.737027 -8.518887 0.597505 0.666862 -1.765734 -25.557761 2.278937 174.364531 -39.501891 167.857966 -11.647542 -28.303017 32.710526 -5.472657 -42.371681 4.474608 -171.545585 87.056672 -167.033328 -0.190312 -11.487000 -3.826532 0.048488 -0.227219 0.015077 1.528452 -39.113001 6.191339 73.730666 83.371089 63.578011 -5.956859 -13.166537 10.032278 0.378868 1.539691 0.149626
-0.544030 52.194049 35.501767 169.949359 -38.566792 -1.655255 4.754372 25.639219 3.166013 0.650041 4.189245 0.551405 1.056743 6.670564 0.902619 3.831578 20.844733 3.353882 2.334951 17.204880 0.182483 4.251485 -3.818427 -0.455388 -9.109855 0.361299 -4.540207 0.892849 -7.562471 2.519131 153.594766 -71.806950 -140.484992 4.188322 -9.108664 -5.750160 -8.525627 0.625915 0.677758 -1.780698 -25.524701 2.250513 174.271954 -39.640355 167.892737 -11.577341 -28.147752 32.475831 -5.464624 -42.370548 4.440195 -171.857090 87.040503 -167.329354 -0.183349 -11.498760 -3.847195 0.050756 -0.228198 0.015652 1.520529 -39.107564 6.167822 73.873829 83.357691 63.716658 -5.944381 -13.168905 10.032041 0.362142 1.535128 0.140461
-0.539414 52.190366 35.496314 169.955337 -38.569197 -1.644598 4.762268 25.622311 3.155620 0.651020 4.184122 0.549948 1.058298 6.662777 0.900455 3.838198 20.839074 3.352597 2.327166 17.208284 0.194283 4.233013 -3.812658 -0.430831 -9.111855 0.386556 -4.513756 0.963770 -7.598465 2.560746 153.340201 -71.813041 -140.296131 4.138760 -9.238707 -5.664075 -8.538884 0.654606 0.691888 -1.787262 -25.500293 2.222141 174.198083 -39.776857 167.920928 -11.524985 -28.020986 32.305167 -5.457785 -42.373130 4.416070 -172.216202 87.029259 -167.675803 -0.185353 -11.510212 -3.863198 0.048831 -0.227688 0.017380 1.524986 -39.104804 6.149841 73.959076 83.352653 63.806145 -5.953119 -13.176020 10.030370 0.362655 1.537189 0.138054
-0.535087 52.186051 35.492360 169.962153 -38.568670 -1.633234 4.777850 25.590684 3.148451 0.641162 4.193108 0.547745 1.061018 6.656137 0.898604 3.840811 20.835239 3.355265 2.320766 17.210228 0.202982 4.220734 -3.798186 -0.413912 -9.107738 0.403827 -4.494034 1.017193 -7.626784 2.590969 153.390682 -71.738468 -140.307565 4.161826 -9.199906 -5.664744 -8.541439 0.658390 0.702136 -1.808490 -25.459685 2.173123 174.177476 -39.909551 167.902201 -11.483024 -27.917669 32.200991 -5.458289 -42.378867 4.387095 -172.609719 87.017497 -168.053045 -0.181601 -11.520077 -3.888146 0.046754 -0.227653 0.018342 1.521643 -39.106587 6.133115 74.040102 83.348232 63.882767 -5.939903 -13.177269 10.028182 0.360601 1.537512 0.139211
-0.531262 52.181678 35.489636 169.967617 -38.568887 -1.618662 4.773696 25.582286 3.136187 0.645661 4.184489 0.542995 1.062224 6.650079 0.897081 3.841055 20.835588 3.358691 2.316981 17.210944 0.207507 4.209658 -3.789083 -0.403230 -9.032595 0.376850 -4.458854 1.010274 -7.618917 2.595332 153.313065 -71.691728 -140.219931 4.178130 -9.163535 -5.679031 -8.544861 0.659624 0.711353 -1.827728 -25.440330 2.127024 174.178357 -40.049792 167.874582 -11.445523 -27.829443 32.153476 -5.454812 -42.386793 4.367509 -172.701093 87.001866 -168.142071 -0.175425 -11.526000 -3.898119 0.044482 -0.228233 0.019038 1.520367 -39.105032 6.118341 74.087508 83.345017 63.923342 -5.940427 -13.183802 10.023672 0.352076 1.546564 0.144904
-0.527504 52.176912 35.489108 169.976278 -38.564282 -1.607465 4.763499 25.573451 3.125515 0.649813 4.176482 0.540252 1.066330 6.638647 0.899593 3.834588 20.845648 3.358560 2.314705 17.210967 0.207947 4.203254 -3.796185 -0.397721 -8.997829 0.369952 -4.445213 1.042207 -7.648174 2.610268 153.197647 -71.666021 -140.106245 4.187023 -9.110419 -5.715925 -8.551578 0.668559 0.712878 -1.906686 -25.464218 2.106064 174.240250 -40.216593 167.833513 -11.414381 -27.747589 32.140767 -5.459949 -42.398635 4.351608 -172.808182 86.992140 -168.246496 -0.173241 -11.532729 -3.909924 0.046219 -0.224729 0.019554 1.512500 -39.108895 6.108512 74.104704 83.343422 63.934908 -5.952457 -13.188184 10.013781 0.375750 1.562383 0.156848
-0.522814 52.173025 35.489641 169.972967 -38.565886 -1.595007 4.762771 25.573770 3.118092 0.652491 4.172763 0.543365 1.062446 6.642240 0.894919 3.836291 20.842379 3.359436 2.313683 17.210915 0.207195 4.203137 -3.804347 -0.398672 -8.958679 0.355212 -4.432395 1.073365 -7.680699 2.621246 153.099962 -71.651909 -140.003806 4.201749 -9.167694 -5.646682 -8.551871 0.649431 0.723924 -1.942498 -25.464517 2.100592 174.211505 -40.374659 167.848128 -11.384284 -27.666081 32.136630 -5.486708 -42.402782 4.361649 -172.910839 86.983152 -168.365897 -0.172572 -11.532596 -3.920317 0.045913 -0.225085 0.018310 1.510995 -39.107000 6.110547 74.161178 83.339215 63.981860 -5.968969 -13.190786 10.010335 0.380878 1.565845 0.161288
-0.516638 52.169463 35.492183 169.972864 -38.567574 -1.595148 4.763903 25.573177 3.121887 0.653519 4.161498 0.551292 1.062441 6.649097 0.889972 3.834229 20.845038 3.356943 2.312414 17.210957 0.205627 4.202075 -3.808179 -0.405083 -8.919458 0.339240 -4.418698 1.109426 -7.715947 2.626747 153.028862 -71.653263 -139.921571 4.206623 -9.178906 -5.610143 -8.553795 0.590475 0.743700 -1.970416 -25.429082 2.095790 174.144750 -40.544296 167.882642 -11.346625 -27.588768 32.122795 -5.507581 -42.405216 4.374696 -172.959091 86.980529 -168.416857 -0.167671 -11.528735 -3.932124 0.042471 -0.225536 0.017650 1.494801 -39.104598 6.137067 74.180931 83.342462 63.987381 -5.999593 -13.194868 10.005016 0.398916 1.577954 0.173366
-0.512734 52.166903 35.495096 169.967719 -38.576617 -1.579063 4.758508 25.569728 3.116650 0.655015 4.171335 0.544227 1.061295 6.641611 0.896929 3.832590 20.849063 3.352966 2.309786 17.213000 0.195894 4.178063 -3.811404 -0.418115 -8.878066 0.327721 -4.407798 1.155808 -7.755890 2.624799 152.984364 -71.672738 -139.866757 4.203120 -9.168758 -5.593831 -8.560577 0.558189 0.746422 -2.001428 -25.414690 2.116179 174.045545 -40.725539 167.935155 -11.296655 -27.513454 32.087607 -5.501430 -42.402792 4.360687 -172.892845 86.976074 -168.346980 -0.158717 -11.528014 -3.937394 0.042173 -0.223659 0.012889 1.507847 -39.095355 6.125070 74.178649 83.336216 63.983811 -5.998728 -13.193343 10.001979 0.405737 1.584424 0.175611
-0.508333 52.164529 35.499965 169.970990 -38.584850 -1.573260 4.746305 25.571797 3.113608 0.658520 4.175137 0.539546 1.058302 6.645013 0.899578 3.831678 20.852352 3.349624 2.302098 17.206222 0.190298 4.156410 -3.818065 -0.432614 -8.834058 0.309696 -4.391406 1.209685 -7.798649 2.613419 152.963207 -71.705430 -139.838360 4.190739 -9.156014 -5.576189 -8.565008 0.511540 0.754778 -2.010808 -25.382916 2.119533 173.909268 -40.906888 167.982838 -11.236791 -27.426293 32.028817 -5.506283 -42.398979 4.353917 -172.831041 86.975287 -168.280421 -0.151132 -11.525272 -3.948195 0.041566 -0.221804 0.012891 1.504469 -39.085862 6.133690 74.119045 83.342691 63.913108 -6.010415 -13.191603 9.999361 0.413529 1.591209 0.184369
-0.511080 52.159078 35.509174 169.995475 -38.562500 -1.543350 4.696590 25.548399 3.064272 0.653707 4.176204 0.545231 1.062459 6.650895 0.893046 3.833847 20.853704 3.343891 2.277293 17.203434 0.184200 4.151184 -3.831663 -0.446148 -8.795805 0.296626 -4.372538 1.270495 -7.841059 2.595679 152.966730 -71.743297 -139.835011 4.175794 -9.143955 -5.556483 -8.567323 0.487530 0.760622 -2.028118 -25.371433 2.131593 173.762286 -41.099690 168.027065 -11.169551 -27.324252 31.951760 -5.509957 -42.435909 4.299096 -173.042357 86.966733 -168.493181 -0.148749 -11.523422 -3.963960 0.042687 -0.220004 0.015599 1.520861 -39.098499 6.108361 73.924942 83.353846 63.696294 -6.093255 -13.206556 10.002642 0.475544 1.632770 0.215797
-0.508372 52.157032 35.517026 169.992998 -38.570737 -1.527772 4.682282 25.551297 3.050659 0.653685 4.179541 0.545331 1.062376 6.655835 0.893171 3.834856 20.858113 3.339922 2.265721 17.195745 0.179024 4.135641 -3.849714 -0.460467 -8.759834 0.281944 -4.360615 1.338658 -7.881740 2.576756 152.977137 -71.781854 -139.836822 4.168699 -9.131956 -5.539196 -8.564657 0.460918 0.762928 -2.063976 -25.373017 2.172858 173.619941 -41.315021 168.086916 -11.096962 -27.215072 31.865261 -5.515473 -42.434417 4.293445 -173.030913 86.968654 -168.488936 -0.147001 -11.516586 -3.965962 0.041283 -0.218447 0.011344 1.535303 -39.087158 6.110741 73.814729 83.358349 63.571656 -6.117687 -13.199531 10.016373 0.478013 1.639430 0.217424
-0.505670 52.154348 35.527372 169.993662 -38.570589 -1.517457 4.662483 25.546656 3.037960 0.653624 4.183108 0.545532 1.062211 6.661141 0.893473 3.837813 20.863665 3.338643 2.261113 17.187308 0.169958 4.115496 -3.875043 -0.473410 -8.726594 0.264470 -4.354753 1.387533 -7.908075 2.558613 153.004523 -71.810332 -139.830959 4.171602 -9.115441 -5.527172 -8.561616 0.411265 0.776185 -2.123849 -25.353864 2.270589 173.482079 -41.537360 168.203558 -11.029136 -27.102999 31.778052 -5.529623 -42.442852 4.303094 -172.875798 86.971838 -168.349156 -0.147954 -11.502982 -3.965379 0.041857 -0.220115 0.011226 1.546489 -39.085745 6.116450 73.702961 83.359543 63.443668 -6.134284 -13.192922 10.028273 0.481593 1.646302 0.221645
